<?xml version="1.0" standalone="no"?>
<!DOCTYPE svg PUBLIC "-//W3C//DTD SVG 1.1//EN" "http://www.w3.org/Graphics/SVG/1.1/DTD/svg11.dtd" >
<svg>
<metadata>
Created by FontForge 20110222 at Mon Mar  7 08:37:54 2011
 By www-data
send bread and water to jason@kottke.org
</metadata>
<defs>
<font id="Silkscreen-Expanded" horiz-adv-x="833" >
  <font-face 
    font-family="Silkscreen Expanded"
    font-weight="400"
    font-stretch="expanded"
    units-per-em="1000"
    panose-1="2 0 5 5 0 0 0 0 0 0"
    ascent="800"
    descent="-200"
    x-height="595"
    cap-height="595"
    bbox="0 -119 714 714"
    underline-thickness="19"
    underline-position="-136"
    unicode-range="U+0020-007E"
  />
    <missing-glyph />
    <glyph glyph-name="space" unicode=" " horiz-adv-x="595" 
 />
    <glyph glyph-name="exclam" unicode="!" horiz-adv-x="476" 
d="M119 238v357h119v-357h-119zM119 119h119v-119h-119v119z" />
    <glyph glyph-name="quotedbl" unicode="&#x22;" horiz-adv-x="714" 
d="M238 357h-119v238h119v-238zM476 357h-119v238h119v-238z" />
    <glyph glyph-name="numbersign" unicode="#" horiz-adv-x="952" 
d="M119 476h119v-119h-119v119zM238 0v595h119v-595h-119zM476 0v595h119v-595h-119zM357 476h119v-119h-119v119zM595 476h119v-119h-119v119zM119 238h119v-119h-119v119zM357 238h119v-119h-119v119zM595 238h119v-119h-119v119z" />
    <glyph glyph-name="dollar" unicode="$" 
d="M595 476h-357v119h357v-119zM476 238h-238v119h238v-119zM238 357h-119v119h119v-119zM595 0h-476v119h357v119h119v-238zM357 -119h-119v119h119v-119zM476 595h-119v119h119v-119z" />
    <glyph glyph-name="percent" unicode="%" horiz-adv-x="952" 
d="M238 0v238h119v-238h-119zM357 238v119h119v-119h-119zM476 357v238h119v-238h-119zM119 357v238h238v-238h-238zM476 0v238h238v-238h-238z" />
    <glyph glyph-name="ampersand" unicode="&#x26;" 
d="M595 476h-357v119h357v-119zM476 238h-238v119h238v-119zM238 357h-119v119h119v-119zM595 0h-357v119h357v-119zM238 119h-119v119h119v-119zM476 -119h-119v119h119v-119zM476 595h-119v119h119v-119z" />
    <glyph glyph-name="quotesingle" unicode="'" horiz-adv-x="476" 
d="M238 357h-119v238h119v-238z" />
    <glyph glyph-name="parenleft" unicode="(" horiz-adv-x="595" 
d="M357 476h-119v119h119v-119zM238 119h-119v357h119v-357zM357 0h-119v119h119v-119z" />
    <glyph glyph-name="parenright" unicode=")" horiz-adv-x="595" 
d="M238 476h-119v119h119v-119zM357 119h-119v357h119v-357zM238 0h-119v119h119v-119z" />
    <glyph glyph-name="asterisk" unicode="*" horiz-adv-x="952" 
d="M476 357h119v-119h-119v119zM595 476h119v-119h-119v119zM595 238h119v-119h-119v119zM119 238h119v-119h-119v119zM238 357h119v-119h-119v119zM119 476h119v-119h-119v119zM357 0v595h119v-595h-119z" />
    <glyph glyph-name="plus" unicode="+" horiz-adv-x="952" 
d="M119 238h238v-238h119v238h238v119h-238v238h-119v-238h-238v-119z" />
    <glyph glyph-name="comma" unicode="," horiz-adv-x="476" 
d="M119 119h119v-119h-119v119zM0 0h119v-119h-119v119z" />
    <glyph glyph-name="hyphen" unicode="-" horiz-adv-x="714" 
d="M476 238h-357v119h357v-119z" />
    <glyph glyph-name="period" unicode="." horiz-adv-x="357" 
d="M0 119h119v-119h-119v119z" />
    <glyph glyph-name="slash" unicode="/" horiz-adv-x="714" 
d="M476 357h-119v238h119v-238zM357 238h-119v119h119v-119zM238 0h-119v238h119v-238z" />
    <glyph glyph-name="zero" unicode="0" 
d="M476 476h-238v119h238v-119zM238 119h-119v357h119v-357zM476 0h-238v119h238v-119zM595 119h-119v357h119v-357z" />
    <glyph glyph-name="one" unicode="1" horiz-adv-x="714" 
d="M238 476h-119v119h238v-476h119v-119h-357v119h119v357z" />
    <glyph glyph-name="two" unicode="2" 
d="M119 0v238h119v-119h357v-119h-476zM476 476h119v-119h-119v119zM476 476h-357v119h357v-119zM238 357h238v-119h-238v119z" />
    <glyph glyph-name="three" unicode="3" 
d="M476 476h119v-119h-119v119zM476 476h-357v119h357v-119zM238 357h238v-119h-238v119zM476 238h119v-119h-119v119zM476 0h-357v119h357v-119z" />
    <glyph glyph-name="four" unicode="4" 
d="M119 595v-476h238v-119h119v119h119v119h-119v357h-119v-357h-119v357h-119z" />
    <glyph glyph-name="five" unicode="5" 
d="M119 595v-357h357v119h-238v119h357v119h-476zM476 238h119v-119h-119v119zM476 0h-357v119h357v-119z" />
    <glyph glyph-name="six" unicode="6" 
d="M238 595h238v-119h-238v119zM476 238h119v-119h-119v119zM238 119h238v-119h-238v119zM119 476v-357h119v119h238v119h-238v119h-119z" />
    <glyph glyph-name="seven" unicode="7" 
d="M595 595v-238h-119v119h-357v119h476zM357 357h119v-119h-119v119zM357 0h-119v238h119v-238z" />
    <glyph glyph-name="eight" unicode="8" 
d="M476 476h119v-119h-119v119zM476 476h-238v119h238v-119zM238 357h238v-119h-238v119zM476 238h119v-119h-119v119zM476 0h-238v119h238v-119zM119 476h119v-119h-119v119zM119 238h119v-119h-119v119z" />
    <glyph glyph-name="nine" unicode="9" 
d="M476 0h-238v119h238v-119zM238 357h-119v119h119v-119zM476 476h-238v119h238v-119zM595 119v357h-119v-119h-238v-119h238v-119h119z" />
    <glyph glyph-name="colon" unicode=":" horiz-adv-x="357" 
d="M0 238h119v-119h-119v119zM0 476h119v-119h-119v119z" />
    <glyph glyph-name="semicolon" unicode=";" horiz-adv-x="476" 
d="M119 238h119v-119h-119v119zM119 476h119v-119h-119v119zM0 119h119v-119h-119v119z" />
    <glyph glyph-name="less" unicode="&#x3c;" horiz-adv-x="714" 
d="M357 119h119v-119h-119v119zM238 238h119v-119h-119v119zM119 357h119v-119h-119v119zM238 476h119v-119h-119v119zM357 595h119v-119h-119v119z" />
    <glyph glyph-name="equal" unicode="=" horiz-adv-x="714" 
d="M476 119h-357v119h357v-119zM476 357h-357v119h357v-119z" />
    <glyph glyph-name="greater" unicode="&#x3e;" horiz-adv-x="714" 
d="M119 119h119v-119h-119v119zM238 238h119v-119h-119v119zM357 357h119v-119h-119v119zM238 476h119v-119h-119v119zM119 595h119v-119h-119v119z" />
    <glyph glyph-name="question" unicode="?" 
d="M476 476h119v-119h-119v119zM476 476h-357v119h357v-119zM238 357h238v-119h-238v119zM238 119h119v-119h-119v119z" />
    <glyph glyph-name="at" unicode="@" horiz-adv-x="952" 
d="M238 119h-119v357h119v-357zM595 0h-357v119h357v-119zM238 595v-119h119v-238h238v119h-119v119h119v119h-357zM595 476h119v-119h-119v119z" />
    <glyph glyph-name="A" unicode="A" 
d="M122 0v476h119v-119h238v119h119v-476h-119v238h-238v-238h-119zM241 595v-119h238v119h-238z" />
    <glyph glyph-name="B" unicode="B" 
d="M595 476v-119h-119v119h119zM595 238v-119h-119v119h119zM476 476h-238v-119h238v-119h-238v-119h238v-119h-357v595h357v-119z" />
    <glyph glyph-name="C" unicode="C" 
d="M595 357h-119v119h119v-119zM476 476h-238v119h238v-119zM595 119h-119v119h119v-119zM238 119h-119v357h119v-357zM476 0h-238v119h238v-119z" />
    <glyph glyph-name="D" unicode="D" 
d="M119 0v595h357v-119h-238v-357h238v-119h-357zM595 476v-357h-119v357h119z" />
    <glyph glyph-name="E" unicode="E" horiz-adv-x="714" 
d="M476 476h-238v-119h238v-119h-238v-119h238v-119h-357v595h357v-119z" />
    <glyph glyph-name="F" unicode="F" horiz-adv-x="714" 
d="M119 0v595h357v-119h-238v-119h238v-119h-238v-238h-119z" />
    <glyph glyph-name="G" unicode="G" 
d="M595 476h-357v119h357v-119zM238 119h-119v357h119v-357zM476 0h-238v119h238v-119zM476 238h-119v119h238v-238h-119v119z" />
    <glyph glyph-name="H" unicode="H" 
d="M119 0v595h119v-238h238v238h119v-595h-119v238h-238v-238h-119z" />
    <glyph glyph-name="I" unicode="I" horiz-adv-x="476" 
d="M119 0v595h119v-595h-119z" />
    <glyph glyph-name="J" unicode="J" 
d="M476 595h119v-476h-119v476zM476 0h-238v119h238v-119zM119 238h119v-119h-119v119z" />
    <glyph glyph-name="K" unicode="K" 
d="M238 238v-238h-119v595h119v-238h119v-119h-119zM357 476h119v-119h-119v119zM476 595h119v-119h-119v119zM357 238h119v-119h-119v119zM476 119h119v-119h-119v119z" />
    <glyph glyph-name="L" unicode="L" horiz-adv-x="714" 
d="M238 119h238v-119h-357v595h119v-476z" />
    <glyph glyph-name="M" unicode="M" horiz-adv-x="952" 
d="M119 0v595h119v-595h-119zM595 0v595h119v-595h-119zM476 476h119v-119h-119v119zM357 357h119v-119h-119v119zM238 476h119v-119h-119v119z" />
    <glyph glyph-name="N" unicode="N" horiz-adv-x="952" 
d="M119 0v595h119v-595h-119zM595 0v595h119v-595h-119zM476 238h119v-119h-119v119zM357 357h119v-119h-119v119zM238 476h119v-119h-119v119z" />
    <glyph glyph-name="O" unicode="O" 
d="M476 476h-238v119h238v-119zM238 119h-119v357h119v-357zM476 0h-238v119h238v-119zM595 119h-119v357h119v-357z" />
    <glyph glyph-name="P" unicode="P" 
d="M119 0v595h357v-119h-238v-119h238v-119h-238v-238h-119zM476 476h119v-119h-119v119z" />
    <glyph glyph-name="Q" unicode="Q" 
d="M476 476h-238v119h238v-119zM238 119h-119v357h119v-357zM476 0h-238v119h238v-119zM595 119h-119v357h119v-357zM476 0h119v-119h-119v119z" />
    <glyph glyph-name="R" unicode="R" 
d="M119 0v595h357v-119h-238v-119h238v-119h-238v-238h-119zM476 476h119v-119h-119v119zM357 238h119v-119h-119v119zM476 119h119v-119h-119v119z" />
    <glyph glyph-name="S" unicode="S" 
d="M119 0v119h357v-119h-357zM238 476v119h357v-119h-357zM238 238h238v119h-238v-119zM476 238h119v-119h-119v119zM119 476h119v-119h-119v119z" />
    <glyph glyph-name="T" unicode="T" horiz-adv-x="714" 
d="M238 0v476h-119v119h357v-119h-119v-476h-119z" />
    <glyph glyph-name="U" unicode="U" 
d="M476 595h119v-476h-119v476zM476 0h-238v119h238v-119zM119 595h119v-476h-119v476z" />
    <glyph glyph-name="V" unicode="V" horiz-adv-x="952" 
d="M119 357v238h119v-238h-119zM357 119h119v-119h-119v119zM238 119v238h119v-238h-119zM476 119v238h119v-238h-119zM595 357v238h119v-238h-119z" />
    <glyph glyph-name="W" unicode="W" horiz-adv-x="952" 
d="M119 119v476h119v-476h-119zM476 119h119v-119h-119v119zM238 119h119v-119h-119v119zM595 119v476h119v-476h-119zM357 119v357h119v-357h-119z" />
    <glyph glyph-name="X" unicode="X" horiz-adv-x="952" 
d="M119 119h119v-119h-119v119zM238 238h119v-119h-119v119zM357 357h119v-119h-119v119zM476 476h119v-119h-119v119zM595 595h119v-119h-119v119zM238 476h119v-119h-119v119zM119 595h119v-119h-119v119zM476 238h119v-119h-119v119zM595 119h119v-119h-119v119z" />
    <glyph glyph-name="Y" unicode="Y" horiz-adv-x="952" 
d="M476 476h119v-119h-119v119zM238 476h119v-119h-119v119zM357 0v357h119v-357h-119zM119 595h119v-119h-119v119zM595 595h119v-119h-119v119z" />
    <glyph glyph-name="Z" unicode="Z" horiz-adv-x="714" 
d="M119 0v238h119v-119h238v-119h-357zM476 595v-238h-119v119h-238v119h357zM238 357h119v-119h-119v119z" />
    <glyph glyph-name="bracketleft" unicode="[" horiz-adv-x="595" 
d="M119 0v595h238v-119h-119v-357h119v-119h-238z" />
    <glyph glyph-name="backslash" unicode="\" horiz-adv-x="714" 
d="M238 357h-119v238h119v-238zM357 238h-119v119h119v-119zM476 0h-119v238h119v-238z" />
    <glyph glyph-name="bracketright" unicode="]" horiz-adv-x="595" 
d="M357 0h-238v119h119v357h-119v119h238v-595z" />
    <glyph glyph-name="asciicircum" unicode="^" horiz-adv-x="714" 
d="M119 476h119v-119h-119v119zM238 595h119v-119h-119v119zM357 476h119v-119h-119v119z" />
    <glyph glyph-name="underscore" unicode="_" 
d="M595 -119h-476v119h476v-119z" />
    <glyph glyph-name="grave" unicode="`" horiz-adv-x="595" 
d="M238 476h-119v119h119v-119zM357 357h-119v119h119v-119z" />
    <glyph glyph-name="a" unicode="a" 
d="M122 0v476h119v-119h238v119h119v-476h-119v238h-238v-238h-119zM241 595v-119h238v119h-238z" />
    <glyph glyph-name="b" unicode="b" 
d="M595 476v-119h-119v119h119zM595 238v-119h-119v119h119zM476 476h-238v-119h238v-119h-238v-119h238v-119h-357v595h357v-119z" />
    <glyph glyph-name="c" unicode="c" 
d="M595 357h-119v119h119v-119zM476 476h-238v119h238v-119zM595 119h-119v119h119v-119zM238 119h-119v357h119v-357zM476 0h-238v119h238v-119z" />
    <glyph glyph-name="d" unicode="d" 
d="M119 0v595h357v-119h-238v-357h238v-119h-357zM595 476v-357h-119v357h119z" />
    <glyph glyph-name="e" unicode="e" horiz-adv-x="714" 
d="M476 476h-238v-119h238v-119h-238v-119h238v-119h-357v595h357v-119z" />
    <glyph glyph-name="f" unicode="f" horiz-adv-x="714" 
d="M119 0v595h357v-119h-238v-119h238v-119h-238v-238h-119z" />
    <glyph glyph-name="g" unicode="g" 
d="M595 476h-357v119h357v-119zM238 119h-119v357h119v-357zM476 0h-238v119h238v-119zM476 238h-119v119h238v-238h-119v119z" />
    <glyph glyph-name="h" unicode="h" 
d="M119 0v595h119v-238h238v238h119v-595h-119v238h-238v-238h-119z" />
    <glyph glyph-name="i" unicode="i" horiz-adv-x="476" 
d="M119 0v595h119v-595h-119z" />
    <glyph glyph-name="j" unicode="j" 
d="M476 595h119v-476h-119v476zM476 0h-238v119h238v-119zM119 238h119v-119h-119v119z" />
    <glyph glyph-name="k" unicode="k" 
d="M238 238v-238h-119v595h119v-238h119v-119h-119zM357 476h119v-119h-119v119zM476 595h119v-119h-119v119zM357 238h119v-119h-119v119zM476 119h119v-119h-119v119z" />
    <glyph glyph-name="l" unicode="l" horiz-adv-x="714" 
d="M238 119h238v-119h-357v595h119v-476z" />
    <glyph glyph-name="m" unicode="m" horiz-adv-x="952" 
d="M119 0v595h119v-595h-119zM595 0v595h119v-595h-119zM476 476h119v-119h-119v119zM357 357h119v-119h-119v119zM238 476h119v-119h-119v119z" />
    <glyph glyph-name="n" unicode="n" horiz-adv-x="952" 
d="M119 0v595h119v-595h-119zM595 0v595h119v-595h-119zM476 238h119v-119h-119v119zM357 357h119v-119h-119v119zM238 476h119v-119h-119v119z" />
    <glyph glyph-name="o" unicode="o" 
d="M476 476h-238v119h238v-119zM238 119h-119v357h119v-357zM476 0h-238v119h238v-119zM595 119h-119v357h119v-357z" />
    <glyph glyph-name="p" unicode="p" 
d="M119 0v595h357v-119h-238v-119h238v-119h-238v-238h-119zM476 476h119v-119h-119v119z" />
    <glyph glyph-name="q" unicode="q" 
d="M476 476h-238v119h238v-119zM238 119h-119v357h119v-357zM476 0h-238v119h238v-119zM595 119h-119v357h119v-357zM476 0h119v-119h-119v119z" />
    <glyph glyph-name="r" unicode="r" 
d="M119 0v595h357v-119h-238v-119h238v-119h-238v-238h-119zM476 476h119v-119h-119v119zM357 238h119v-119h-119v119zM476 119h119v-119h-119v119z" />
    <glyph glyph-name="s" unicode="s" 
d="M119 0v119h357v-119h-357zM238 476v119h357v-119h-357zM238 238h238v119h-238v-119zM476 238h119v-119h-119v119zM119 476h119v-119h-119v119z" />
    <glyph glyph-name="t" unicode="t" horiz-adv-x="714" 
d="M238 0v476h-119v119h357v-119h-119v-476h-119z" />
    <glyph glyph-name="u" unicode="u" 
d="M476 595h119v-476h-119v476zM476 0h-238v119h238v-119zM119 595h119v-476h-119v476z" />
    <glyph glyph-name="v" unicode="v" horiz-adv-x="952" 
d="M119 357v238h119v-238h-119zM357 119h119v-119h-119v119zM238 119v238h119v-238h-119zM476 119v238h119v-238h-119zM595 357v238h119v-238h-119z" />
    <glyph glyph-name="w" unicode="w" horiz-adv-x="952" 
d="M119 119v476h119v-476h-119zM476 119h119v-119h-119v119zM238 119h119v-119h-119v119zM595 119v476h119v-476h-119zM357 119v357h119v-357h-119z" />
    <glyph glyph-name="x" unicode="x" horiz-adv-x="952" 
d="M119 119h119v-119h-119v119zM238 238h119v-119h-119v119zM357 357h119v-119h-119v119zM476 476h119v-119h-119v119zM595 595h119v-119h-119v119zM238 476h119v-119h-119v119zM119 595h119v-119h-119v119zM476 238h119v-119h-119v119zM595 119h119v-119h-119v119z" />
    <glyph glyph-name="y" unicode="y" horiz-adv-x="952" 
d="M476 476h119v-119h-119v119zM238 476h119v-119h-119v119zM357 0v357h119v-357h-119zM119 595h119v-119h-119v119zM595 595h119v-119h-119v119z" />
    <glyph glyph-name="z" unicode="z" horiz-adv-x="714" 
d="M119 0v238h119v-119h238v-119h-357zM476 595v-238h-119v119h-238v119h357zM238 357h119v-119h-119v119z" />
    <glyph glyph-name="braceleft" unicode="{" horiz-adv-x="714" 
d="M476 476h-119v-119h-119v238h238v-119zM476 0h-238v238h119v-119h119v-119zM238 238h-119v119h119v-119z" />
    <glyph glyph-name="bar" unicode="|" horiz-adv-x="476" 
d="M119 -119v833h119v-833h-119z" />
    <glyph glyph-name="braceright" unicode="}" horiz-adv-x="714" 
d="M357 357h-119v119h-119v119h238v-238zM476 238h-119v119h119v-119zM357 0h-238v119h119v119h119v-238z" />
    <glyph glyph-name="asciitilde" unicode="~" 
d="M595 476h-119v119h119v-119zM357 476h-119v119h119v-119zM476 357h-119v119h119v-119zM238 357h-119v119h119v-119z" />
  </font>
</defs>
</svg>
