<svg width="600" height="600" viewBox="0 0 720 1024" fill="none" xmlns="http://www.w3.org/2000/svg">
<rect width="600" height="600" fill="#2E132C"/>
<rect x="97" y="341" width="526" height="342" fill="#2E132C"/>
<rect x="474.889" y="437.576" width="229.778" height="34.7879" transform="rotate(-180 474.889 437.576)" fill="#FF865C"/>
<path d="M495.778 465.406L495.778 472.364L224.222 472.364L224.222 465.406L231.185 465.406L231.185 458.448L238.148 458.448L238.148 451.491L245.111 451.491L245.111 437.576L474.889 437.576L474.889 451.491L481.852 451.491L481.852 458.448L488.815 458.448L488.815 465.406L495.778 465.406Z" fill="#FFEA5C"/>
<path d="M474.889 486.279L474.889 507.151L245.111 507.151L245.111 486.279L238.148 486.279L238.148 479.321L231.185 479.321L231.185 472.364L488.815 472.364L488.815 479.321L481.852 479.321L481.852 486.279L474.889 486.279Z" fill="#00DA76"/>
<rect x="474.889" y="541.939" width="229.778" height="34.7879" transform="rotate(-180 474.889 541.939)" fill="#0096CE"/>
<path fill-rule="evenodd" clip-rule="evenodd" d="M259.037 576.727V569.77H238.148V562.812H231.185V548.897H224.222V486.279H217.259V479.321H210.296V472.364H203.333V465.406H210.296V458.449H217.259L217.259 451.491H224.222L224.222 395.83H231.185V381.915H238.148V374.958H259.037V368H460.963V374.958H481.852V381.915H488.815V395.83H495.778V451.491H502.741V458.449H509.704V465.406H516.667V472.364H509.704V479.321H502.741V486.279H495.778V548.897H488.815V562.812H481.852V569.77H460.963V576.727H259.037ZM245.111 541.939V486.279H238.148V479.321H231.185V472.364H224.222V465.406H231.185V458.449H238.148V451.491H245.111L245.111 402.788H474.889V451.491H481.852V458.449H488.815V465.406L495.778 465.406V472.364L488.815 472.364V479.321H481.852V486.279H474.889V541.939H245.111Z" fill="url(#paint0_linear_33_210)"/>
<path fill-rule="evenodd" clip-rule="evenodd" d="M587.964 639.254V646.076H559.584V611.515H587.964V618.564H595V639.254H587.964ZM580.693 618.791H573.656V639.482H580.693V618.791ZM516.896 611.743H545.276V618.791H531.204V625.612H545.276V632.433H531.204V639.254H545.276V646.076H516.896V611.743ZM495.553 646.303H481.246V618.791H474.209V611.743H502.589V618.791H495.553V646.303ZM445.829 611.743H460.136V646.303H445.829V611.743ZM417.215 639.254H410.178V632.433H403.142V646.303H388.835V611.743H403.142V618.791H410.178V625.612H417.215V611.743H431.522V646.303H417.215V639.254ZM367.491 646.303H346.147V639.482H339.111V611.97H353.418V639.482H360.455V611.97H374.762V639.482H367.726V646.303H367.491Z" fill="white"/>
<path fill-rule="evenodd" clip-rule="evenodd" d="M295.129 655V647.871H323.444V655H295.129ZM252.538 647.871V640.743H273.833V647.871H252.538ZM273.833 633.376H280.854V640.505H273.833V633.376ZM259.792 626.248H274.067V633.376H259.792V626.248ZM252.538 619.119H259.558V626.248H252.538V619.119ZM281.088 611.753V619.119H259.792V611.753H281.088ZM224.222 640.505V626.01H231.243V640.505H224.222ZM217.436 647.871V640.743H224.222V647.871H217.436ZM210.181 626.248H217.436V640.743H210.181V626.248ZM202.927 611.753H209.947V626.248H202.927V611.753ZM231.477 611.753H238.497V626.248H231.477V611.753ZM167.591 611.753H188.886V619.119H174.845V626.248H188.886V633.376H174.845V640.505H188.886V647.634H167.591V611.753ZM146.295 619.119H153.316V640.743H146.295V619.119ZM132.02 640.505H146.295V647.634H125V611.515H146.295V618.881H132.02V640.505Z" fill="#F50D5A"/>
<defs>
<linearGradient id="paint0_linear_33_210" x1="360" y1="576.727" x2="360" y2="368" gradientUnits="userSpaceOnUse">
<stop offset="0.166667" stop-color="#800FFF"/>
<stop offset="0.833333" stop-color="#F50D5A"/>
</linearGradient>
</defs>
</svg>
